# Blender v2.79 (sub 0) OBJ File: 'hexapyramid.blend'
# www.blender.org
mtllib hexapyramid3.mtl
o Plane.001_Plane.002
v -7.864234 2.945469 -14.506889
v -7.864233 -3.000678 -14.506889
v -0.076349 2.945469 -17.162323
v -0.076348 -3.000677 -17.162323
vn 0.3227 0.0000 0.9465
usemtl Material.002
s off
f 1//1 2//1 4//1 3//1
o Plane
v -0.078122 -0.092375 -12.000000
v 0.078122 -0.092375 -12.000000
v -0.078122 0.092375 -12.000000
v 0.078122 0.092375 -12.000000
vn 0.0000 0.0000 1.0000
usemtl AL
s off
f 5//2 6//2 8//2 7//2
o Hexagonale_Pyramide
v -2.237947 1.292079 -7.714276
v -0.000000 2.584159 -7.714267
v 2.237947 1.292079 -7.714276
v -2.237947 -1.292079 -7.714295
v 2.237947 -1.292079 -7.714295
v -0.000000 -2.584159 -7.714305
v 0.000001 -0.000045 -6.414944
vn 0.0000 0.0000 -1.0000
vn -0.2510 0.4348 0.8648
vn 0.2510 0.4348 0.8648
vn -0.5021 -0.0000 0.8648
vn 0.5021 -0.0000 0.8648
vn -0.2511 -0.4348 0.8648
vn 0.2511 -0.4348 0.8648
usemtl Material.001
s off
f 9//3 10//3 11//3
f 12//3 11//3 13//3
f 12//3 13//3 14//3
f 12//3 9//3 11//3
f 15//4 10//4 9//4
f 11//5 10//5 15//5
f 12//6 15//6 9//6
f 13//7 11//7 15//7
f 12//8 14//8 15//8
f 15//9 14//9 13//9
o Plane.002_Plane.003
v 0.021958 2.945469 -17.109541
v 0.021958 -3.000678 -17.109541
v 7.960807 2.945469 -14.946867
v 7.960808 -3.000677 -14.946867
vn -0.2628 -0.0000 0.9648
usemtl Material.003
s off
f 16//10 17//10 19//10 18//10
