# Blender v2.79 (sub 0) OBJ File: 'hexapyramid.blend'
# www.blender.org
mtllib hexapyramid.mtl
o Plane
v -0.467213 -0.552452 -12.000000
v 0.467213 -0.552452 -12.000000
v -0.467213 0.552452 -12.000000
v 0.467213 0.552452 -12.000000
vn 0.0000 0.0000 1.0000
usemtl AL
s off
f 1//1 2//1 4//1 3//1
o Hexagonale_Pyramide
v -1.145026 0.661081 -7.714281
v -0.000000 1.322163 -7.714276
v 1.145026 0.661081 -7.714281
v -1.145026 -0.661081 -7.714291
v 1.145026 -0.661081 -7.714291
v -0.000000 -1.322163 -7.714296
v 0.000001 -0.000045 -1.714286
vn 0.0000 0.0000 -1.0000
vn -0.4911 0.8507 0.1875
vn 0.4911 0.8507 0.1875
vn -0.9823 -0.0000 0.1875
vn 0.9823 -0.0000 0.1875
vn -0.4911 -0.8507 0.1874
vn 0.4911 -0.8507 0.1874
usemtl Material.001
s off
f 5//2 6//2 7//2
f 8//2 7//2 9//2
f 8//2 9//2 10//2
f 8//2 5//2 7//2
f 11//3 6//3 5//3
f 7//4 6//4 11//4
f 8//5 11//5 5//5
f 9//6 7//6 11//6
f 8//7 10//7 11//7
f 11//8 10//8 9//8
