# Blender v2.79 (sub 0) OBJ File: 'prism.blend'
# www.blender.org
mtllib prism-uzsi1.mtl
o Plane
v 1.058640 4.248068 -0.134719
v 1.058641 -4.697001 -0.134720
v 1.058640 4.248067 3.529318
v 1.058641 -4.697001 3.529317
vn -1.0000 -0.0000 0.0000
usemtl None
s off
f 1//1 2//1 4//1 3//1
o sterbina.005_Plane.005
v -0.889945 1.371354 -0.281392
v -0.889945 -0.635096 -0.281392
v 1.110055 1.371354 -0.281392
v 1.110055 -0.635096 -0.281392
v -0.889945 -0.628646 -0.271393
v 1.110055 -0.628646 -0.271393
v 0.110055 -0.628646 -0.271393
v -2.439958 0.324957 -0.281393
v -2.439958 -1.675043 -0.281393
v -0.439958 0.324958 -0.281393
v -0.439958 -1.675042 -0.281393
v -2.439958 -1.675043 -0.271393
v -0.439958 -1.675042 -0.271393
v -1.439958 -1.675043 -0.271393
v 0.656397 0.324958 -0.281393
v 0.656397 -1.675042 -0.281393
v 2.656396 0.324958 -0.281393
v 2.656397 -1.675042 -0.281393
v 0.656397 -1.675042 -0.271393
v 2.656397 -1.675042 -0.271393
v 1.656397 -1.675042 -0.271393
v -0.889945 -0.646880 -0.281393
v -0.889944 -2.665142 -0.281393
v 1.110055 -0.646879 -0.281393
v 1.110056 -2.665141 -0.281393
v 0.110055 -0.646879 -0.281393
vn -0.0000 -0.0000 -1.0000
usemtl None
s off
f 6//2 5//2 7//2
f 13//2 12//2 14//2
f 20//2 19//2 21//2
f 29//2 30//2 28//2
f 6//2 7//2 8//2
f 13//2 14//2 15//2
f 20//2 21//2 22//2
f 30//2 27//2 26//2
f 27//2 30//2 29//2
l 11 10
l 9 11
l 18 17
l 16 18
l 25 24
l 23 25
o Cube
v -0.890612 -1.661865 0.713285
v 1.109388 -1.661865 0.713285
v 1.109388 0.338135 1.713285
v -0.890612 -1.661865 2.713284
v -0.890612 0.338135 1.713284
v 1.109388 -1.661865 2.713284
vn 0.0000 0.4472 -0.8944
vn 1.0000 -0.0000 0.0000
vn 0.0000 0.4472 0.8944
vn -1.0000 0.0000 0.0000
vn 0.0000 -1.0000 0.0000
usemtl Material
s off
f 31//3 35//3 33//3 32//3
f 32//4 33//4 36//4
f 36//5 33//5 35//5 34//5
f 34//6 35//6 31//6
f 32//7 36//7 34//7 31//7
o sterbina.001_Plane.001
v -0.889945 1.371354 -0.271393
v -0.889945 -0.633958 -0.271393
v 1.110055 1.371354 -0.271393
v 1.110055 -0.633958 -0.271393
v -0.889945 -0.635725 -0.271393
v 1.110055 -0.635725 -0.271393
v 0.110055 -0.635725 -0.271393
v -0.889945 -0.649252 -0.271393
v -0.889944 -2.665142 -0.271393
v 1.110055 -0.649252 -0.271393
v 1.110056 -2.665141 -0.271393
v 0.110055 -0.649252 -0.271393
v 0.656397 0.324958 -0.271393
v 0.656397 -1.675042 -0.271393
v 2.656396 0.324958 -0.271393
v 2.656397 -1.675042 -0.271393
v 0.656397 -1.675042 -0.271393
v 2.656397 -1.675042 -0.271393
v 1.656397 -1.675042 -0.271393
v -2.439958 0.324957 -0.271393
v -2.439958 -1.675043 -0.271393
v -0.439958 0.324958 -0.271393
v -0.439958 -1.675042 -0.271393
v -2.439958 -1.675043 -0.271393
v -0.439958 -1.675042 -0.271393
v -1.439958 -1.675043 -0.271393
vn 0.0000 0.0000 1.0000
usemtl None
s off
f 38//8 39//8 37//8
f 47//8 46//8 48//8
f 50//8 51//8 49//8
f 57//8 58//8 56//8
f 38//8 40//8 39//8
f 48//8 44//8 45//8
f 45//8 47//8 48//8
f 50//8 52//8 51//8
f 57//8 59//8 58//8
l 43 42
l 41 43
l 55 54
l 53 55
l 62 61
l 60 62
