# Blender v2.79 (sub 0) OBJ File: 'prism.blend'
# www.blender.org
mtllib prism.mtl
o stinitko_Plane.002
v 1.740601 -1.868097 -0.994966
v 1.740601 -1.868097 1.005034
v 1.740601 0.338435 -0.994966
v 1.740601 0.338435 1.005034
vn -1.0000 -0.0000 0.0000
usemtl None
s off
f 1//1 2//1 4//1 3//1
o Plane
v -1.844535 4.248067 -0.948589
v -1.844535 -4.697001 -0.948589
v 1.819503 4.248067 -0.948589
v 1.819503 -4.697001 -0.948589
vn 0.0000 -0.0000 1.0000
usemtl None
s off
f 5//2 6//2 8//2 7//2
o sterbina.005_Plane.005
v -1.991207 1.371354 0.999997
v -1.991207 -0.628646 0.999997
v -1.991208 1.371354 -1.000003
v -1.991207 -0.628646 -1.000003
v -1.981207 -0.628646 0.999997
v -1.981207 -0.628646 -1.000003
v -1.981207 -0.628646 -0.000003
v -1.991207 0.324958 2.550010
v -1.991207 -1.675042 2.550010
v -1.991208 0.324958 0.550010
v -1.991207 -1.675042 0.550010
v -1.981207 -1.675042 2.550010
v -1.981208 -1.675042 0.550010
v -1.981207 -1.675042 1.550010
v -1.991207 0.324958 -0.546345
v -1.991207 -1.675042 -0.546345
v -1.991208 0.324958 -2.546345
v -1.991207 -1.675042 -2.546345
v -1.981207 -1.675042 -0.546345
v -1.981208 -1.675042 -2.546345
v -1.981207 -1.675042 -1.546345
v -1.991207 -0.665141 0.999997
v -1.991207 -2.665141 0.999997
v -1.991207 -0.665141 -1.000003
v -1.991207 -2.665141 -1.000003
v -1.991207 -0.665141 -0.000003
vn -1.0000 -0.0000 0.0000
usemtl None
s off
f 10//3 9//3 11//3
f 17//3 16//3 18//3
f 24//3 23//3 25//3
f 33//3 34//3 32//3
f 10//3 11//3 12//3
f 17//3 18//3 19//3
f 24//3 25//3 26//3
f 34//3 31//3 30//3
f 31//3 34//3 33//3
l 15 14
l 13 15
l 22 21
l 20 22
l 29 28
l 27 29
o Cube
v -0.996530 -1.661865 1.000664
v -0.996530 -1.661865 -0.999336
v 0.003470 0.338135 -0.999336
v 1.003470 -1.661865 1.000664
v 0.003470 0.338135 1.000664
v 1.003470 -1.661865 -0.999336
vn -0.8944 0.4472 0.0000
vn 0.0000 0.0000 -1.0000
vn 0.8944 0.4472 0.0000
vn 0.0000 0.0000 1.0000
vn 0.0000 -1.0000 0.0000
usemtl Material
s off
f 35//4 39//4 37//4 36//4
f 36//5 37//5 40//5
f 40//6 37//6 39//6 38//6
f 38//7 39//7 35//7
f 36//8 40//8 38//8 35//8
o sterbina.001_Plane.001
v -1.981208 1.371354 0.999997
v -1.981207 -0.628646 0.999997
v -1.981208 1.371354 -1.000003
v -1.981207 -0.628646 -1.000003
v -1.981207 -0.628646 0.999997
v -1.981207 -0.628646 -1.000003
v -1.981207 -0.628646 -0.000003
v -1.981207 -0.665141 0.999997
v -1.981207 -2.665141 0.999997
v -1.981208 -0.665141 -1.000003
v -1.981207 -2.665141 -1.000003
v -1.981208 -0.665141 -0.000003
v -1.981208 0.324958 -0.546345
v -1.981207 -1.675042 -0.546345
v -1.981208 0.324958 -2.546345
v -1.981208 -1.675042 -2.546345
v -1.981207 -1.675042 -0.546345
v -1.981208 -1.675042 -2.546345
v -1.981207 -1.675042 -1.546345
v -1.981208 0.324958 2.550010
v -1.981207 -1.675042 2.550010
v -1.981208 0.324958 0.550010
v -1.981208 -1.675042 0.550010
v -1.981207 -1.675042 2.550010
v -1.981208 -1.675042 0.550010
v -1.981207 -1.675042 1.550010
vn 1.0000 0.0000 -0.0000
usemtl None
s off
f 42//9 43//9 41//9
f 51//9 50//9 52//9
f 54//9 55//9 53//9
f 61//9 62//9 60//9
f 42//9 44//9 43//9
f 52//9 48//9 49//9
f 49//9 51//9 52//9
f 54//9 56//9 55//9
f 61//9 63//9 62//9
l 47 46
l 45 47
l 59 58
l 57 59
l 66 65
l 64 66
