# Blender v2.79 (sub 0) OBJ File: 'prism.blend'
# www.blender.org
mtllib prism3.mtl
o Plane
v 1.058640 4.248068 -0.134719
v 1.058641 -4.697001 -0.134720
v 1.058640 4.248067 3.529318
v 1.058641 -4.697001 3.529317
vn -1.0000 -0.0000 0.0000
usemtl None
s off
f 1//1 2//1 4//1 3//1
o Cube
v -0.890612 -0.928685 0.372504
v 1.109388 -0.928685 0.372504
v 1.109388 0.413121 2.161235
v -0.890612 -1.822948 2.161441
v -0.890612 0.413120 2.161235
v 1.109388 -1.822947 2.161441
vn 0.0000 0.7999 -0.6001
vn 1.0000 0.0000 0.0000
vn 0.0000 0.0001 1.0000
vn -1.0000 -0.0000 -0.0000
vn 0.0000 -0.8945 -0.4471
usemtl Material
s off
f 5//2 9//2 7//2 6//2
f 6//3 7//3 10//3
f 10//4 7//4 9//4 8//4
f 8//5 9//5 5//5
f 6//6 10//6 8//6 5//6
